<svg width="414" height="257" viewBox="0 0 414 257" fill="none" xmlns="http://www.w3.org/2000/svg">
<g clip-path="url(#clip0)">
<path d="M93.4279 205.426C95.8083 199.194 96.153 193.536 94.198 192.788C92.2429 192.041 88.7283 196.486 86.348 202.718C83.9676 208.95 83.6229 214.608 85.5779 215.356C87.533 216.104 91.0476 211.658 93.4279 205.426Z" fill="#2F2E41"/>
<path d="M91.4038 226.186C93.5398 213.015 84.6013 200.606 71.4392 198.468C58.2771 196.331 45.8756 205.275 43.7397 218.446C41.6038 231.617 50.5423 244.027 63.7044 246.164C76.8664 248.302 89.2679 239.357 91.4038 226.186Z" fill="#2F2E41"/>
<path d="M63.9044 241.277H56.5696V254.427H63.9044V241.277Z" fill="#2F2E41"/>
<path d="M78.574 241.277H71.2392V254.427H78.574V241.277Z" fill="#2F2E41"/>
<path d="M62.6819 256.874C66.0577 256.874 68.7943 255.847 68.7943 254.58C68.7943 253.314 66.0577 252.287 62.6819 252.287C59.3062 252.287 56.5696 253.314 56.5696 254.58C56.5696 255.847 59.3062 256.874 62.6819 256.874Z" fill="#2F2E41"/>
<path d="M77.3516 256.568C80.7273 256.568 83.4639 255.541 83.4639 254.275C83.4639 253.008 80.7273 251.981 77.3516 251.981C73.9758 251.981 71.2392 253.008 71.2392 254.275C71.2392 255.541 73.9758 256.568 77.3516 256.568Z" fill="#2F2E41"/>
<path d="M68.4254 224.453C72.9807 224.319 76.565 220.516 76.4311 215.957C76.2973 211.399 72.496 207.812 67.9406 207.946C63.3853 208.08 59.801 211.884 59.9349 216.442C60.0688 221.001 63.8701 224.587 68.4254 224.453Z" fill="white"/>
<path d="M68.183 218.952C69.7021 218.952 70.9336 217.72 70.9336 216.2C70.9336 214.68 69.7021 213.447 68.183 213.447C66.6639 213.447 65.4324 214.68 65.4324 216.2C65.4324 217.72 66.6639 218.952 68.183 218.952Z" fill="#3F3D56"/>
<path d="M44.1515 199.848C42.202 191.112 48.4338 182.284 58.0706 180.13C67.7074 177.977 77.0999 183.314 79.0494 192.051C80.9989 200.787 74.6123 204.009 64.9755 206.163C55.3387 208.316 46.101 208.585 44.1515 199.848Z" fill="#E6E6E6"/>
<path d="M51.2851 216.283C52.182 214.39 48.0257 210.539 42.0018 207.68C35.9778 204.821 30.3674 204.037 29.4704 205.929C28.5735 207.822 32.7298 211.673 38.7537 214.532C44.7777 217.391 50.3882 218.175 51.2851 216.283Z" fill="#2F2E41"/>
<path d="M55.7124 231.032C55.7124 233.397 61.7968 238.066 68.5483 238.066C75.2999 238.066 81.6302 231.409 81.6302 229.044C81.6302 226.68 75.2999 229.503 68.5483 229.503C61.7968 229.503 55.7124 228.668 55.7124 231.032Z" fill="white"/>
<path d="M237.373 156.661L211.148 182.562L151.88 241.083L150.681 242.267L143.999 248.864L129.989 235.013L128.756 233.796L103.141 208.479H103.136L94.9286 200.361L90.0794 195.565L75.6381 181.294L73.6874 179.364L50.6689 156.611C46.0959 152.036 42.2199 146.814 39.1653 141.111C38.885 140.6 38.6214 140.084 38.3635 139.568C32.9048 128.677 30.5691 116.486 31.616 104.347C32.6628 92.2085 37.0511 80.5976 44.2936 70.8037C51.5362 61.0098 61.3496 53.4161 72.6442 48.8657C83.9389 44.3153 96.2729 42.9863 108.277 45.0263H108.282C108.495 45.06 108.703 45.0936 108.916 45.1385C111.168 45.5361 113.397 46.0549 115.593 46.6924C121.339 48.3547 126.832 50.7951 131.917 53.9459C132.45 54.2768 132.977 54.6134 133.498 54.9556C137.226 57.4207 140.695 60.2569 143.853 63.4208L144.049 63.2245L144.245 63.4208C146.158 61.5074 148.185 59.7127 150.317 58.0466C150.782 57.682 151.253 57.323 151.724 56.9752C158.933 51.6556 167.152 47.8642 175.877 45.8328C184.601 43.8014 193.648 43.5728 202.464 45.1609C204.718 45.5584 206.949 46.079 209.147 46.7205C209.881 46.928 210.61 47.1524 211.333 47.3936C211.916 47.5844 212.499 47.7807 213.076 47.9939C217.884 49.7136 222.473 51.9918 226.75 54.7817C227.686 55.3932 228.609 56.0327 229.519 56.7003C237.222 62.3038 243.62 69.5116 248.273 77.8273C252.925 86.143 255.72 95.3689 256.467 104.87C257.213 114.37 255.893 123.92 252.597 132.861C249.3 141.802 244.107 149.922 237.373 156.661Z" fill="#6C63FF"/>
<path opacity="0.15" d="M211.148 182.562L151.88 241.083L150.681 242.267L143.999 248.864L129.989 235.013L128.756 233.796L103.141 208.479C107.256 207.52 113.58 208.838 115.895 209.982C121.384 212.692 125.897 217.14 131.469 219.676C136.445 221.924 142.004 222.539 147.351 221.432C157.341 219.334 165.072 211.603 171.889 203.997C178.706 196.384 185.674 188.216 195.255 184.688C200.306 182.825 205.732 182.405 211.148 182.562Z" fill="black"/>
<path d="M254.236 64.5035C246.081 56.3195 235.929 50.4114 224.787 47.3656C224.048 47.158 223.313 46.9729 222.567 46.799C219.362 46.0325 216.103 45.5094 212.819 45.2339C212.247 45.1778 211.675 45.1385 211.098 45.1104C208.217 44.9281 205.327 44.9394 202.447 45.1441C186.675 46.2002 171.798 52.8542 160.492 63.9088L160.29 63.7069L160.088 63.9088C152.701 56.6962 143.738 51.3031 133.908 48.1565C133.353 47.977 132.792 47.8031 132.231 47.6404C124.661 45.4432 116.763 44.5981 108.899 45.1441C108.68 45.1553 108.462 45.1721 108.249 45.1946C93.8301 46.3008 80.1678 52.0924 69.3428 61.6874C68.3223 62.5849 67.3188 63.5274 66.3435 64.5035C57.1793 73.6907 50.8869 85.3494 48.2348 98.0559C45.5826 110.762 46.6855 123.967 51.4088 136.056C51.6051 136.584 51.818 137.105 52.0422 137.627C55.3784 145.588 60.2364 152.819 66.3434 158.916L88.1622 180.469L89.8777 182.169L137.092 228.803L138.308 230.009L150.709 242.261L160.29 251.725L254.236 158.911C266.729 146.382 273.745 129.406 273.745 111.707C273.745 94.0082 266.729 77.0321 254.236 64.5035ZM253.053 157.716L160.29 249.357L151.909 241.077L139.772 229.089L138.555 227.889L92.2603 182.152L90.5727 180.486L67.5317 157.721C61.617 151.818 56.903 144.822 53.6512 137.122C53.427 136.601 53.2138 136.079 53.0178 135.557C48.3833 123.761 47.2879 110.869 49.8659 98.4597C52.4438 86.0503 58.5832 74.6629 67.5317 65.6928C68.5746 64.6493 69.6417 63.6508 70.7328 62.6971H70.7385C81.1529 53.5775 94.2156 48.0406 108.008 46.9C109.841 46.7429 111.676 46.6643 113.513 46.6643C114.202 46.6643 114.886 46.6756 115.576 46.698C121.21 46.8716 126.797 47.7767 132.198 49.3907C132.753 49.5534 133.308 49.7273 133.857 49.9124C139.7 51.818 145.237 54.5556 150.3 58.041C153.595 60.3023 156.675 62.8638 159.499 65.6928L160.094 66.2874L160.29 66.0911L160.486 66.2874L161.08 65.6928C167.361 59.4009 174.867 54.468 183.133 51.2005C191.399 47.9329 200.247 46.4004 209.13 46.698C209.842 46.7204 210.554 46.7541 211.266 46.8046C211.837 46.8382 212.409 46.8775 212.976 46.9336C216.589 47.2579 220.169 47.8866 223.678 48.8129C224.429 49.0036 225.174 49.2112 225.914 49.4412C236.67 52.696 246.399 58.6852 254.152 66.8244C261.905 74.9636 267.418 84.9748 270.151 95.8814C272.885 106.788 272.747 118.217 269.75 129.055C266.754 139.892 261.001 149.767 253.053 157.716Z" fill="#3F3D56"/>
<path opacity="0.15" d="M122.796 49.2392C119.197 52.0834 115.335 54.7088 112.997 58.5964C111.276 61.4686 110.53 64.8064 109.975 68.105C108.899 74.5226 108.439 81.0972 106.331 87.2512C104.229 93.4051 100.125 99.2842 94.0428 101.579C90.2699 102.998 86.1103 102.919 82.0908 102.644C72.1737 101.971 62.1892 100.193 53.2644 95.8229C48.2751 93.377 43.4369 90.0785 37.8927 89.7139C36.7644 89.6413 35.6314 89.7034 34.5178 89.899C39.3554 74.7878 49.4784 61.9302 63.0278 53.6872C76.5772 45.4441 92.6436 42.3689 108.277 45.0263H108.282C108.495 45.06 108.703 45.0936 108.916 45.1385C111.168 45.5361 113.397 46.0549 115.593 46.6924C118.041 47.4012 120.446 48.2515 122.796 49.2392Z" fill="black"/>
<path d="M-26.2286 240.872C-25.1088 242.575 -23.5694 243.961 -21.7589 244.896C-19.9484 245.831 -17.9277 246.284 -15.8916 246.211C-10.6588 245.962 -6.29638 242.307 -2.36934 238.838L9.24606 228.575L1.55861 228.207C-3.96976 227.943 -9.64076 227.696 -14.9063 229.402C-20.1719 231.108 -25.0281 235.213 -25.991 240.667L-26.2286 240.872Z" fill="#E6E6E6"/>
<path d="M84.2326 66.8228C97.5668 66.8228 108.376 56.006 108.376 42.6629C108.376 29.3198 97.5668 18.503 84.2326 18.503C70.8983 18.503 60.0887 29.3198 60.0887 42.6629C60.0887 56.006 70.8983 66.8228 84.2326 66.8228Z" fill="#2F2E41"/>
<path d="M80.5652 61.6238H73.2303V74.7741H80.5652V61.6238Z" fill="#2F2E41"/>
<path d="M95.2348 61.6238H87.9V74.7741H95.2348V61.6238Z" fill="#2F2E41"/>
<path d="M79.3427 77.2207C82.7184 77.2207 85.455 76.1938 85.455 74.9271C85.455 73.6603 82.7184 72.6334 79.3427 72.6334C75.9669 72.6334 73.2303 73.6603 73.2303 74.9271C73.2303 76.1938 75.9669 77.2207 79.3427 77.2207Z" fill="#2F2E41"/>
<path d="M94.0123 76.9149C97.3881 76.9149 100.125 75.888 100.125 74.6212C100.125 73.3545 97.3881 72.3276 94.0123 72.3276C90.6366 72.3276 87.9 73.3545 87.9 74.6212C87.9 75.888 90.6366 76.9149 94.0123 76.9149Z" fill="#2F2E41"/>
<path d="M84.8438 44.8037C89.4011 44.8037 93.0955 41.1068 93.0955 36.5465C93.0955 31.9862 89.4011 28.2893 84.8438 28.2893C80.2865 28.2893 76.5921 31.9862 76.5921 36.5465C76.5921 41.1068 80.2865 44.8037 84.8438 44.8037Z" fill="white"/>
<path d="M89.5969 40.1817C90.6669 39.1115 90.6611 37.37 89.5841 36.2917C88.5071 35.2135 86.7667 35.207 85.6967 36.2771C84.6268 37.3473 84.6326 39.0889 85.7096 40.1671C86.7866 41.2453 88.527 41.2519 89.5969 40.1817Z" fill="#3F3D56"/>
<path d="M60.8123 20.1949C58.8628 11.4584 65.0945 2.63044 74.7314 0.477185C84.3682 -1.67607 93.7607 3.66081 95.7102 12.3974C97.6597 21.134 91.273 24.3562 81.6362 26.5094C71.9995 28.6626 62.7618 28.9315 60.8123 20.1949Z" fill="#E6E6E6"/>
<path d="M278.381 207.277C279.996 205.944 277.866 200.691 273.625 195.544C269.383 190.397 264.635 187.305 263.02 188.637C261.405 189.97 263.535 195.223 267.777 200.37C272.019 205.517 276.767 208.609 278.381 207.277Z" fill="#2F2E41"/>
<path d="M295.586 245.918C308.748 243.781 317.687 231.371 315.551 218.2C313.415 205.029 301.014 196.085 287.851 198.222C274.689 200.359 265.751 212.769 267.887 225.94C270.023 239.111 282.424 248.055 295.586 245.918Z" fill="#2F2E41"/>
<path d="M302.721 241.031H295.386V254.181H302.721V241.031Z" fill="#2F2E41"/>
<path d="M288.051 241.031H280.717V254.181H288.051V241.031Z" fill="#2F2E41"/>
<path d="M296.609 256.628C299.985 256.628 302.721 255.601 302.721 254.334C302.721 253.067 299.985 252.04 296.609 252.04C293.233 252.04 290.496 253.067 290.496 254.334C290.496 255.601 293.233 256.628 296.609 256.628Z" fill="#2F2E41"/>
<path d="M281.939 256.322C285.315 256.322 288.052 255.295 288.052 254.028C288.052 252.761 285.315 251.735 281.939 251.735C278.563 251.735 275.827 252.761 275.827 254.028C275.827 255.295 278.563 256.322 281.939 256.322Z" fill="#2F2E41"/>
<path d="M300.172 209.18C292.56 202.886 288.33 197.115 294.028 190.214C299.726 183.313 310.516 182.822 318.128 189.115C325.74 195.409 327.291 206.106 321.592 213.006C315.894 219.907 307.784 215.473 300.172 209.18Z" fill="#6C63FF"/>
<path d="M283.614 217.787C288.169 217.653 291.753 213.849 291.619 209.291C291.486 204.732 287.684 201.146 283.129 201.28C278.574 201.414 274.989 205.217 275.123 209.776C275.257 214.334 279.058 217.921 283.614 217.787Z" fill="white"/>
<path d="M280.471 210.24C281.99 210.24 283.222 209.008 283.222 207.488C283.222 205.968 281.99 204.736 280.471 204.736C278.952 204.736 277.721 205.968 277.721 207.488C277.721 209.008 278.952 210.24 280.471 210.24Z" fill="#3F3D56"/>
<path d="M270.899 216.334C269.228 218.006 268.046 223.427 270.397 225.779C272.747 228.131 279.655 225.629 281.326 223.957C282.997 222.285 278.798 222.076 276.448 219.724C274.097 217.372 272.57 214.662 270.899 216.334Z" fill="white"/>
<path d="M314.637 254.378C316.592 253.63 316.247 247.972 313.867 241.74C311.487 235.508 307.972 231.063 306.017 231.81C304.062 232.558 304.407 238.216 306.787 244.448C309.167 250.68 312.682 255.126 314.637 254.378Z" fill="#2F2E41"/>
</g>
<defs>
<clipPath id="clip0">
<rect width="518" height="257" fill="white" transform="translate(-84)"/>
</clipPath>
</defs>
</svg>
