<svg width="381" height="561" viewBox="0 0 381 561" fill="none" xmlns="http://www.w3.org/2000/svg">
<path opacity="0.111111" d="M191.104 230.686C287.03 345.382 272.118 516.38 157.799 612.621C43.4809 708.862 -126.955 693.902 -222.88 579.206C-318.806 464.51 -303.894 293.512 -189.575 197.271C-75.2569 101.03 95.1794 115.99 191.104 230.686Z" stroke="black"/>
<path opacity="0.222222" d="M188.504 270.039C274.101 392.687 244.391 561.73 122.148 647.608C-0.0960722 733.487 -168.584 703.68 -254.181 581.032C-339.778 458.385 -310.068 289.341 -187.824 203.463C-65.5808 117.585 102.907 147.391 188.504 270.039Z" stroke="black"/>
<path opacity="0.333333" d="M181.35 310.067C255.967 439.734 211.685 605.536 82.4467 680.398C-46.7917 755.259 -212.05 710.834 -286.666 581.167C-361.283 451.501 -317.002 285.699 -187.763 210.837C-58.5249 135.975 106.733 180.401 181.35 310.067Z" stroke="black"/>
<path opacity="0.444444" d="M169.6 350.371C232.669 486.068 174.153 647.368 38.9033 710.643C-96.3463 773.919 -257.116 715.212 -320.185 579.514C-383.254 443.816 -324.738 282.517 -189.488 219.242C-54.2387 155.966 106.531 214.673 169.6 350.371Z" stroke="black"/>
<path opacity="0.555556" d="M153.249 390.546C204.29 531.243 131.984 686.811 -8.24741 738.019C-148.479 789.228 -303.537 716.686 -354.578 575.989C-405.619 435.293 -333.313 279.724 -193.082 228.516C-52.8507 177.308 102.208 249.85 153.249 390.546Z" stroke="black"/>
<path opacity="0.666667" d="M132.324 430.192C170.949 574.816 85.4041 723.47 -58.7419 762.221C-202.888 800.972 -351.055 715.148 -389.679 570.523C-428.304 425.899 -342.759 277.245 -198.613 238.494C-54.4671 199.743 93.6995 285.567 132.324 430.192Z" stroke="black"/>
<path opacity="0.777778" d="M106.89 468.91C132.804 616.362 34.6715 756.969 -112.292 782.969C-259.256 808.968 -399.403 710.514 -425.317 563.062C-451.232 415.61 -353.099 275.002 -206.135 249.003C-59.1716 223.004 80.9758 321.458 106.89 468.91Z" stroke="black"/>
<path opacity="0.888889" d="M77.0442 506.31C90.0509 655.467 -19.9232 786.958 -168.586 800.007C-317.249 813.056 -448.31 702.722 -461.317 553.565C-474.324 404.409 -364.35 272.917 -215.687 259.868C-67.024 246.819 64.0375 357.153 77.0442 506.31Z" stroke="black"/>
<path d="M42.9175 542.01C42.9175 691.737 -78.0606 813.111 -227.291 813.111C-376.522 813.111 -497.5 691.737 -497.5 542.01C-497.5 392.283 -376.522 270.909 -227.291 270.909C-78.0606 270.909 42.9175 392.283 42.9175 542.01Z" stroke="black"/>
</svg>
