<svg width="319" height="164" viewBox="0 0 319 164" fill="none" xmlns="http://www.w3.org/2000/svg">
<path d="M159.5 146.587C247.589 146.587 319 144.599 319 142.147C319 139.696 247.589 137.708 159.5 137.708C71.4106 137.708 0 139.696 0 142.147C0 144.599 71.4106 146.587 159.5 146.587Z" fill="#E6E6E6"/>
<path d="M244.502 94.0458C244.301 94.0486 244.099 94.0513 243.895 94.0513C243.691 94.0513 243.49 94.0486 243.288 94.0458C232.611 93.8043 224.873 87.1666 226.843 80.2024L231.646 63.213L232.86 58.9142L254.379 59.2793L255.687 63.4848L260.835 80.0377C263.014 87.0404 255.276 93.8043 244.502 94.0458Z" fill="#6C63FF"/>
<path opacity="0.2" d="M255.687 63.4848C252.018 65.5717 247.855 66.6467 243.629 66.5989C239.403 66.5512 235.266 65.3823 231.646 63.213L232.86 58.9142L254.379 59.2793L255.687 63.4848Z" fill="black"/>
<path d="M254.779 80.7661C255.708 77.3189 258.763 72.3461 267.332 66.3503C282.275 55.8922 273.361 48.0506 272.974 47.722C272.164 47.0329 272.284 46.2591 273.253 45.9947C273.816 45.8827 274.396 45.8918 274.955 46.0213C275.514 46.1507 276.039 46.3976 276.494 46.7454C276.978 47.1436 288.141 56.6283 271.278 68.4277C256.103 79.0483 259.329 85.9812 259.366 86.0477C259.773 86.7892 259.121 87.3825 257.909 87.3745C256.696 87.3665 255.383 86.7595 254.975 86.0188C254.889 85.8621 253.913 83.9752 254.779 80.7661Z" fill="#6C63FF"/>
<path d="M233.963 96.5219C233.637 96.5219 233.314 96.458 233.013 96.3339C232.712 96.2097 232.438 96.0277 232.207 95.7983C231.977 95.5689 231.794 95.2965 231.669 94.9968C231.544 94.697 231.48 94.3758 231.48 94.0513V83.3455C231.48 82.6902 231.742 82.0618 232.207 81.5985C232.673 81.1352 233.305 80.8749 233.963 80.8749C234.622 80.8749 235.253 81.1352 235.719 81.5985C236.185 82.0618 236.446 82.6902 236.446 83.3455V94.0513C236.446 94.3758 236.382 94.697 236.257 94.9968C236.132 95.2965 235.95 95.5689 235.719 95.7983C235.488 96.0277 235.215 96.2097 234.913 96.3339C234.612 96.458 234.289 96.5219 233.963 96.5219Z" fill="#6C63FF"/>
<path d="M236.14 71.1057C236.004 71.4005 235.811 71.6656 235.571 71.886C235.332 72.1064 235.052 72.2778 234.746 72.3903C234.44 72.5029 234.115 72.5544 233.789 72.5419C233.463 72.5294 233.143 72.4531 232.847 72.3175L223.072 67.8428C222.474 67.5685 222.011 67.0693 221.783 66.4551C221.555 65.8408 221.581 65.1617 221.857 64.5668C222.132 63.972 222.633 63.5101 223.25 63.2827C223.867 63.0553 224.55 63.0809 225.148 63.3539L234.922 67.8287C235.219 67.9643 235.485 68.1566 235.707 68.3947C235.928 68.6328 236.1 68.9119 236.213 69.2162C236.327 69.5205 236.378 69.844 236.366 70.1682C236.353 70.4924 236.277 70.811 236.14 71.1057Z" fill="#6C63FF"/>
<path d="M251.65 71.1057C251.787 71.4005 251.98 71.6656 252.219 71.886C252.458 72.1065 252.739 72.2778 253.045 72.3904C253.351 72.5029 253.676 72.5544 254.002 72.5419C254.327 72.5294 254.648 72.4531 254.944 72.3175L264.719 67.8428C265.317 67.5689 265.781 67.0698 266.01 66.4553C266.238 65.8407 266.212 65.161 265.936 64.5658C265.661 63.9705 265.16 63.5084 264.542 63.2812C263.924 63.0539 263.241 63.0801 262.643 63.354L252.868 67.8287C252.572 67.9643 252.305 68.1566 252.084 68.3947C251.862 68.6328 251.69 68.9119 251.577 69.2162C251.464 69.5205 251.412 69.844 251.425 70.1682C251.437 70.4924 251.514 70.811 251.65 71.1057Z" fill="#6C63FF"/>
<path d="M253.827 96.5219C254.153 96.5219 254.476 96.458 254.778 96.3339C255.079 96.2097 255.352 96.0277 255.583 95.7983C255.814 95.5689 255.997 95.2965 256.121 94.9968C256.246 94.697 256.31 94.3758 256.31 94.0513V83.3455C256.31 82.6902 256.049 82.0618 255.583 81.5985C255.117 81.1352 254.486 80.8749 253.827 80.8749C253.169 80.8749 252.537 81.1352 252.072 81.5985C251.606 82.0618 251.344 82.6902 251.344 83.3455V94.0513C251.344 94.3758 251.408 94.697 251.533 94.9968C251.658 95.2965 251.841 95.5689 252.072 95.7983C252.302 96.0277 252.576 96.2097 252.877 96.3339C253.178 96.458 253.501 96.5219 253.827 96.5219Z" fill="#6C63FF"/>
<path d="M264.204 27.2124C264.419 26.9435 264.574 26.6324 264.659 26.2996C264.743 25.9668 264.757 25.6198 264.697 25.2816L263.346 17.3715L261.994 9.46138C261.921 9.03429 261.737 8.63384 261.459 8.30026C261.181 7.96669 260.82 7.71176 260.412 7.56109C260.003 7.41042 259.562 7.36932 259.133 7.44192C258.704 7.51452 258.301 7.69826 257.966 7.97468L251.757 13.0942L248.016 16.1785C245.521 15.7371 242.972 15.6989 240.465 16.0652L236.861 13.0942L230.652 7.97468C230.317 7.69826 229.914 7.51452 229.485 7.44192C229.056 7.36932 228.615 7.41042 228.207 7.56109C227.799 7.71177 227.437 7.9667 227.16 8.30027C226.882 8.63384 226.697 9.0343 226.624 9.46139L225.273 17.3715L223.921 25.2816C223.849 25.6974 223.886 26.1246 224.029 26.5218C221.714 30.0543 220.391 34.1398 220.2 38.3533C220.009 42.5667 220.956 46.7541 222.942 50.48C224.929 54.2059 227.883 57.334 231.496 59.5391C235.109 61.7443 239.251 62.9457 243.489 63.0186C247.727 63.0915 251.908 62.0331 255.596 59.9535C259.284 57.8739 262.344 54.8491 264.459 51.1937C266.574 47.5384 267.665 43.386 267.62 39.1685C267.576 34.951 266.396 30.8225 264.204 27.2124Z" fill="#6C63FF"/>
<path d="M230.03 11.2162C229.883 11.2164 229.736 11.2427 229.599 11.294C229.396 11.3675 229.216 11.4934 229.078 11.6587C228.941 11.8241 228.85 12.0229 228.815 12.2348L227.176 21.8274C227.14 22.0388 227.16 22.256 227.235 22.4571C227.31 22.6582 227.437 22.8361 227.603 22.9729C227.769 23.1098 227.968 23.2008 228.181 23.2367C228.393 23.2726 228.612 23.2523 228.814 23.1777L237.982 19.7935C238.184 19.7189 238.363 19.5927 238.501 19.4276C238.638 19.2624 238.73 19.0642 238.766 18.8528C238.802 18.6414 238.782 18.4242 238.707 18.2231C238.632 18.0221 238.505 17.8442 238.339 17.7073L238.339 17.7071L230.809 11.4988C230.591 11.3167 230.315 11.2167 230.03 11.2162Z" fill="#E6E6E6"/>
<path d="M258.588 11.2162C258.303 11.2167 258.028 11.3167 257.809 11.4988L250.279 17.7073C250.113 17.8442 249.987 18.0221 249.912 18.2231C249.837 18.4242 249.816 18.6414 249.852 18.8528C249.889 19.0642 249.98 19.2624 250.117 19.4276C250.255 19.5927 250.434 19.7189 250.636 19.7935L259.804 23.1777C260.006 23.2523 260.225 23.2726 260.437 23.2367C260.65 23.2008 260.849 23.1098 261.015 22.9729C261.181 22.8361 261.308 22.6582 261.383 22.4571C261.458 22.256 261.478 22.0388 261.442 21.8274L259.803 12.2348C259.768 12.0229 259.677 11.8241 259.54 11.6587C259.402 11.4934 259.222 11.3675 259.02 11.294C258.882 11.2427 258.736 11.2164 258.588 11.2162Z" fill="#E6E6E6"/>
<path d="M243.895 46.0123C245.724 46.0123 247.206 44.5375 247.206 42.7182C247.206 40.8989 245.724 39.4241 243.895 39.4241C242.067 39.4241 240.585 40.8989 240.585 42.7182C240.585 44.5375 242.067 46.0123 243.895 46.0123Z" fill="#E6E6E6"/>
<path d="M243.895 41.8947C245.114 41.8947 246.102 41.526 246.102 41.0711C246.102 40.6163 245.114 40.2476 243.895 40.2476C242.676 40.2476 241.688 40.6163 241.688 41.0711C241.688 41.526 242.676 41.8947 243.895 41.8947Z" fill="#6C63FF"/>
<path d="M242.24 44.6398H245.275V48.3456C245.275 48.5439 245.235 48.7402 245.159 48.9234C245.083 49.1066 244.971 49.273 244.83 49.4132C244.689 49.5534 244.522 49.6646 244.338 49.7405C244.154 49.8164 243.957 49.8554 243.757 49.8554C243.355 49.8554 242.969 49.6964 242.684 49.4132C242.4 49.1301 242.24 48.7461 242.24 48.3456V44.6398H242.24Z" fill="#FF6584"/>
<path d="M244.079 7.27554C243.92 7.6039 243.766 7.93581 243.621 8.27451C241.908 12.2477 241.331 16.6138 241.952 20.8924C242.262 20.4439 242.589 19.9768 242.921 19.5044C242.21 15.3981 242.61 11.1774 244.079 7.27554Z" fill="#6C63FF"/>
<path d="M246.563 10.2951C246.403 10.6235 246.249 10.9554 246.104 11.2941C244.391 15.2672 243.814 19.6334 244.435 23.912C244.745 23.4636 245.072 22.9964 245.404 22.524C244.693 18.4177 245.093 14.197 246.563 10.2951Z" fill="#6C63FF"/>
<path d="M254.218 69.5759L253.868 65.1498L253.518 60.7236C253.499 60.4846 253.418 60.2548 253.281 60.0572C253.145 59.8597 252.958 59.7013 252.741 59.5981C252.523 59.4949 252.283 59.4504 252.042 59.4692C251.802 59.488 251.571 59.5694 251.373 59.7052L247.695 62.2196L245.01 64.0558C244.838 63.8558 244.625 63.6953 244.385 63.5852C244.145 63.4751 243.884 63.4181 243.619 63.4181C243.355 63.4181 243.094 63.4751 242.854 63.5852C242.614 63.6953 242.401 63.8558 242.229 64.0558L239.544 62.2196L235.866 59.7051C235.668 59.5694 235.437 59.488 235.196 59.4692C234.956 59.4504 234.715 59.4948 234.498 59.5981C234.28 59.7013 234.094 59.8596 233.958 60.0572C233.821 60.2548 233.739 60.4846 233.721 60.7236L233.371 65.1498L233.021 69.5759C233.002 69.8149 233.047 70.0546 233.15 70.271C233.254 70.4873 233.413 70.6727 233.612 70.8085C233.811 70.9442 234.041 71.0256 234.282 71.0444C234.522 71.0632 234.763 71.0187 234.98 70.9155L239.008 69.0039L242.317 67.4331C242.487 67.6048 242.69 67.7411 242.913 67.8341C243.137 67.9271 243.377 67.975 243.619 67.975C243.862 67.975 244.102 67.9271 244.325 67.8341C244.549 67.7411 244.752 67.6048 244.922 67.4331L248.231 69.0039L252.259 70.9155C252.476 71.0187 252.717 71.0632 252.957 71.0444C253.197 71.0256 253.428 70.9442 253.627 70.8085C253.825 70.6727 253.985 70.4873 254.088 70.271C254.192 70.0546 254.237 69.8149 254.218 69.5759Z" fill="#6C63FF"/>
<path d="M239.481 39.9731C239.938 39.9731 240.309 39.6044 240.309 39.1496C240.309 38.6948 239.938 38.326 239.481 38.326C239.024 38.326 238.653 38.6948 238.653 39.1496C238.653 39.6044 239.024 39.9731 239.481 39.9731Z" fill="#E6E6E6"/>
<path d="M248.31 39.9731C248.767 39.9731 249.137 39.6044 249.137 39.1496C249.137 38.6948 248.767 38.326 248.31 38.326C247.852 38.326 247.482 38.6948 247.482 39.1496C247.482 39.6044 247.852 39.9731 248.31 39.9731Z" fill="#E6E6E6"/>
<path d="M83.7529 86.7703C83.9543 86.773 84.1557 86.7758 84.3599 86.7758C84.5641 86.7758 84.7654 86.773 84.9669 86.7703C95.6438 86.5287 103.383 79.8911 101.413 72.9268L96.6094 55.9374L95.3955 51.6386L73.8761 52.0037L72.5684 56.2092L67.4202 72.7621C65.2407 79.7648 72.9794 86.5287 83.7529 86.7703Z" fill="#6C63FF"/>
<path opacity="0.2" d="M72.5684 56.2092C76.2376 58.2961 80.3999 59.3711 84.626 59.3234C88.8521 59.2756 92.9888 58.1068 96.6094 55.9374L95.3955 51.6386L73.8761 52.0037L72.5684 56.2092Z" fill="black"/>
<path d="M70.8629 71.4769C68.5402 68.757 63.6402 65.5633 53.3174 63.7922C35.3138 60.702 39.9985 49.8193 40.2063 49.3578C40.6423 48.39 40.2014 47.7415 39.2119 47.9151C38.6551 48.0535 38.1344 48.3088 37.6847 48.6639C37.2351 49.0189 36.867 49.4655 36.605 49.9737C36.339 50.5396 30.3289 63.8646 50.6438 67.35C68.9272 70.4882 68.9925 78.128 68.9876 78.2039C68.9389 79.0472 69.7835 79.3058 70.8758 78.7824C71.9682 78.259 72.8941 77.1512 72.9443 76.3081C72.9544 76.1299 73.0256 74.0088 70.8629 71.4769Z" fill="#6C63FF"/>
<path d="M94.2919 89.2464C94.618 89.2464 94.9409 89.1825 95.2422 89.0583C95.5434 88.9342 95.8171 88.7522 96.0477 88.5228C96.2783 88.2934 96.4612 88.021 96.586 87.7212C96.7107 87.4215 96.775 87.1002 96.775 86.7758V76.0699C96.7742 75.4152 96.5122 74.7876 96.0466 74.3249C95.5811 73.8622 94.95 73.6023 94.2919 73.6023C93.6339 73.6023 93.0028 73.8622 92.5372 74.3249C92.0717 74.7876 91.8097 75.4152 91.8089 76.0699V86.7758C91.8089 87.1002 91.8731 87.4215 91.9979 87.7212C92.1227 88.021 92.3056 88.2934 92.5362 88.5228C92.7667 88.7522 93.0405 88.9342 93.3417 89.0583C93.643 89.1825 93.9659 89.2464 94.2919 89.2464Z" fill="#6C63FF"/>
<path d="M92.1149 63.8302C92.2511 64.1249 92.4444 64.3901 92.6837 64.6105C92.923 64.8309 93.2036 65.0023 93.5094 65.1148C93.8152 65.2273 94.1403 65.2788 94.4662 65.2663C94.792 65.2538 95.1122 65.1776 95.4084 65.042L105.183 60.5672C105.48 60.4318 105.747 60.2396 105.968 60.0016C106.19 59.7635 106.363 59.4843 106.476 59.1798C106.59 58.8754 106.641 58.5517 106.629 58.2272C106.616 57.9028 106.54 57.584 106.403 57.2891C106.267 56.9941 106.074 56.7288 105.834 56.5083C105.595 56.2878 105.314 56.1165 105.008 56.004C104.702 55.8916 104.376 55.8403 104.05 55.853C103.724 55.8658 103.404 55.9424 103.108 56.0784L93.3327 60.5531C93.0365 60.6887 92.77 60.8811 92.5485 61.1191C92.327 61.3572 92.1548 61.6364 92.0417 61.9407C91.9286 62.245 91.8768 62.5685 91.8894 62.8927C91.9019 63.2169 91.9786 63.5354 92.1149 63.8302Z" fill="#6C63FF"/>
<path d="M76.605 63.8302C76.4687 64.1249 76.2754 64.3901 76.0361 64.6105C75.7968 64.8309 75.5163 65.0023 75.2104 65.1148C74.9046 65.2273 74.5795 65.2788 74.2536 65.2663C73.9278 65.2538 73.6076 65.1776 73.3114 65.042L63.5366 60.5672C63.2401 60.4318 62.9732 60.2396 62.7513 60.0016C62.5295 59.7635 62.357 59.4843 62.2436 59.1798C62.1303 58.8754 62.0784 58.5517 62.0909 58.2272C62.1033 57.9028 62.18 57.584 62.3163 57.2891C62.4527 56.9941 62.6462 56.7288 62.8857 56.5083C63.1252 56.2878 63.406 56.1165 63.7121 56.004C64.0182 55.8916 64.3436 55.8403 64.6696 55.853C64.9957 55.8658 65.316 55.9424 65.6123 56.0784L75.3871 60.5531C75.6833 60.6887 75.9498 60.8811 76.1713 61.1191C76.3928 61.3572 76.5651 61.6364 76.6782 61.9407C76.7912 62.245 76.843 62.5685 76.8304 62.8927C76.8179 63.2169 76.7412 63.5354 76.605 63.8302Z" fill="#6C63FF"/>
<path d="M74.4279 89.2464C74.1018 89.2464 73.7789 89.1825 73.4777 89.0583C73.1764 88.9342 72.9027 88.7522 72.6721 88.5228C72.4416 88.2934 72.2587 88.021 72.1339 87.7212C72.0091 87.4215 71.9449 87.1002 71.9449 86.7758V76.0699C71.9457 75.4152 72.2076 74.7876 72.6732 74.3249C73.1388 73.8622 73.7699 73.6023 74.4279 73.6023C75.0859 73.6023 75.717 73.8622 76.1826 74.3249C76.6482 74.7876 76.9101 75.4152 76.9109 76.0699V86.7758C76.9109 87.1002 76.8467 87.4215 76.7219 87.7212C76.5971 88.021 76.4142 88.2934 76.1837 88.5228C75.9531 88.7522 75.6794 88.9342 75.3781 89.0583C75.0769 89.1825 74.754 89.2464 74.4279 89.2464Z" fill="#6C63FF"/>
<path d="M104.226 19.2462C104.369 18.8491 104.406 18.4218 104.334 18.0061L102.982 10.096L101.631 2.18586C101.558 1.75877 101.373 1.35831 101.096 1.02474C100.818 0.691164 100.457 0.436235 100.048 0.285563C99.6403 0.13489 99.1994 0.0937838 98.7701 0.166383C98.3409 0.238983 97.9384 0.42273 97.6032 0.699148L91.394 5.81868L87.7906 8.7897C85.2836 8.42335 82.7337 8.46161 80.2389 8.903L76.4981 5.81867L70.289 0.699137C69.9537 0.422718 69.5513 0.238973 69.122 0.166373C68.6928 0.0937724 68.2519 0.134874 67.8437 0.285546C67.4355 0.436219 67.0743 0.691153 66.7965 1.02473C66.5187 1.3583 66.334 1.75875 66.261 2.18585L64.9096 10.096L63.5583 18.0061C63.4986 18.3443 63.5117 18.6913 63.5966 19.0241C63.6816 19.3569 63.8365 19.668 64.0511 19.9369C61.8564 23.5478 60.6744 27.678 60.6281 31.8976C60.5818 36.1172 61.6729 40.2721 63.7879 43.9298C65.9029 47.5875 68.9644 50.6144 72.6539 52.6954C76.3434 54.7765 80.526 55.8357 84.7665 55.7628C89.007 55.6899 93.1503 54.4876 96.7654 52.2809C100.38 50.0743 103.335 46.944 105.322 43.2157C107.308 39.4875 108.255 35.2976 108.062 31.0821C107.869 26.8666 106.544 22.7796 104.226 19.2462H104.226Z" fill="#6C63FF"/>
<path d="M97.4461 4.2233L89.9165 10.4315L89.9163 10.4318C89.7504 10.5686 89.6236 10.7465 89.5486 10.9476C89.4737 11.1487 89.4532 11.3658 89.4894 11.5772C89.5255 11.7887 89.6169 11.9869 89.7544 12.152C89.8919 12.3171 90.0707 12.4433 90.2728 12.5179L99.4413 15.9021C99.6434 15.9767 99.8617 15.9971 100.074 15.9611C100.287 15.9252 100.486 15.8342 100.652 15.6974C100.818 15.5605 100.945 15.3826 101.02 15.1815C101.095 14.9805 101.115 14.7633 101.079 14.5518L99.4404 4.95929C99.4054 4.74736 99.3144 4.54851 99.1767 4.38317C99.0389 4.21782 98.8594 4.09195 98.6566 4.01849C98.5187 3.96719 98.3726 3.94082 98.2254 3.94061C97.9404 3.94114 97.6646 4.04118 97.4461 4.2233Z" fill="#E6E6E6"/>
<path d="M69.2355 4.01849C69.0327 4.09195 68.8532 4.21782 68.7155 4.38316C68.5777 4.54851 68.4867 4.74736 68.4518 4.95929L66.813 14.5518C66.7769 14.7633 66.7974 14.9805 66.8723 15.1815C66.9473 15.3826 67.0742 15.5605 67.2402 15.6974C67.4061 15.8342 67.6054 15.9252 67.8179 15.9611C68.0304 15.9971 68.2487 15.9767 68.4508 15.9021L77.6193 12.5179C77.8214 12.4433 78.0002 12.3171 78.1377 12.152C78.2752 11.9869 78.3667 11.7887 78.4028 11.5772C78.4389 11.3658 78.4185 11.1487 78.3435 10.9476C78.2686 10.7465 78.1417 10.5686 77.9758 10.4318L70.4461 4.2233C70.2276 4.04118 69.9518 3.94114 69.6667 3.94061C69.5195 3.94082 69.3735 3.96719 69.2355 4.01849Z" fill="#E6E6E6"/>
<path d="M84.3599 38.7367C86.1884 38.7367 87.6706 37.2619 87.6706 35.4426C87.6706 33.6234 86.1884 32.1485 84.3599 32.1485C82.5315 32.1485 81.0492 33.6234 81.0492 35.4426C81.0492 37.2619 82.5315 38.7367 84.3599 38.7367Z" fill="#E6E6E6"/>
<path d="M84.3599 34.6191C85.5788 34.6191 86.567 34.2504 86.567 33.7956C86.567 33.3408 85.5788 32.972 84.3599 32.972C83.1409 32.972 82.1528 33.3408 82.1528 33.7956C82.1528 34.2504 83.1409 34.6191 84.3599 34.6191Z" fill="#6C63FF"/>
<path d="M84.4979 42.5799C84.2986 42.5799 84.1013 42.5408 83.9172 42.4649C83.7331 42.3891 83.5658 42.2779 83.4249 42.1377C83.284 41.9975 83.1722 41.831 83.096 41.6478C83.0197 41.4647 82.9805 41.2683 82.9805 41.0701V37.3642H86.0153V41.0701C86.0153 41.2683 85.976 41.4647 85.8998 41.6478C85.8235 41.831 85.7117 41.9975 85.5708 42.1377C85.4299 42.2779 85.2626 42.3891 85.0785 42.4649C84.8944 42.5408 84.6971 42.5799 84.4979 42.5799Z" fill="#FF6584"/>
<path d="M84.1757 0C84.3348 0.328357 84.4894 0.660266 84.6347 0.998962C86.3469 4.97211 86.9243 9.33822 86.3034 13.6168C85.9928 13.1684 85.6663 12.7012 85.3343 12.2289C86.0454 8.12251 85.6455 3.90182 84.1757 0Z" fill="#6C63FF"/>
<path d="M81.6927 3.01959C81.8518 3.34795 82.0063 3.67986 82.1517 4.01855C83.8638 7.9917 84.4412 12.3578 83.8204 16.6364C83.5097 16.188 83.1833 15.7208 82.8512 15.2485C83.5624 11.1421 83.1625 6.92141 81.6927 3.01959Z" fill="#6C63FF"/>
<path d="M74.0374 14.2613L74.3872 9.83517L74.737 5.40902C74.7559 5.17004 74.8376 4.94021 74.9741 4.74264C75.1105 4.54507 75.2969 4.38671 75.5143 4.28349C75.7318 4.18028 75.9727 4.13583 76.2129 4.15462C76.453 4.17342 76.684 4.25479 76.8826 4.39056L80.5602 6.90505L83.2456 8.7412C83.4173 8.54125 83.6304 8.3807 83.8704 8.27062C84.1104 8.16053 84.3715 8.10353 84.6358 8.10353C84.9001 8.10353 85.1612 8.16053 85.4012 8.27062C85.6412 8.3807 85.8544 8.54125 86.026 8.7412L88.7115 6.90505L92.389 4.39056C92.5876 4.25479 92.8186 4.17342 93.0588 4.15462C93.2989 4.13583 93.5399 4.18028 93.7573 4.28349C93.9748 4.38671 94.1611 4.54507 94.2975 4.74264C94.434 4.94021 94.5158 5.17004 94.5346 5.40902L94.8844 9.83517L95.2342 14.2613C95.2531 14.5003 95.2084 14.74 95.1047 14.9564C95.001 15.1727 94.8418 15.3581 94.6433 15.4939C94.4447 15.6296 94.2137 15.711 93.9735 15.7298C93.7333 15.7486 93.4924 15.7042 93.275 15.6009L89.2476 13.6893L85.9385 12.1185C85.7683 12.2902 85.5654 12.4265 85.3418 12.5195C85.1182 12.6126 84.8782 12.6605 84.6358 12.6605C84.3934 12.6605 84.1534 12.6126 83.9298 12.5195C83.7062 12.4265 83.5033 12.2902 83.3331 12.1185L80.024 13.6893L75.9967 15.601C75.7792 15.7042 75.5383 15.7486 75.2981 15.7298C75.0579 15.711 74.8269 15.6297 74.6284 15.4939C74.4298 15.3581 74.2706 15.1727 74.1669 14.9564C74.0632 14.74 74.0185 14.5003 74.0374 14.2613Z" fill="#6C63FF"/>
<path d="M87.9465 31.874C87.9465 32.3288 88.317 31.874 88.7742 31.874C89.2313 31.874 89.6018 32.3288 89.6018 31.874C89.6014 31.6559 89.514 31.4469 89.3588 31.2928C89.2036 31.1387 88.9934 31.0522 88.7742 31.0522C88.5549 31.0522 88.3447 31.1387 88.1895 31.2928C88.0343 31.4469 87.9469 31.6559 87.9465 31.874Z" fill="#E6E6E6"/>
<path d="M80.7733 31.874C80.7733 32.3288 80.4028 31.874 79.9457 31.874C79.4885 31.874 79.118 32.3288 79.118 31.874C79.1184 31.6559 79.2058 31.4469 79.361 31.2928C79.5162 31.1387 79.7264 31.0522 79.9457 31.0522C80.1649 31.0522 80.3751 31.1387 80.5303 31.2928C80.6855 31.4469 80.7729 31.6559 80.7733 31.874Z" fill="#E6E6E6"/>
<path d="M172.601 94.0529V88.8181H146.296V89.1455V94.0529V136.257V141.492H151.557H172.601V136.257H151.557V94.0529H172.601Z" fill="#6C63FF"/>
<path d="M185.424 88.8182V141.492H211.729V88.8182H185.424ZM206.468 136.257H190.685V94.0529H206.468V136.257Z" fill="#6C63FF"/>
<path d="M112.428 136.257V89.1455H107.167V136.257V141.492H112.428H133.472V136.257H112.428Z" fill="#6C63FF"/>
<path d="M95.3295 94.0529V88.8181H69.0244V89.1455V94.0529V112.374V117.609V136.257V141.492H74.2855H95.3295V136.257H74.2855V117.609H95.3295V112.374H74.2855V94.0529H95.3295Z" fill="#6C63FF"/>
<path d="M301.166 94.0529V88.8181H274.861V89.1455V94.0529V112.374V117.609V136.257V141.492H280.122H301.166V136.257H280.122V117.609H301.166V112.374H280.122V94.0529H301.166Z" fill="#6C63FF"/>
<path d="M51.2685 89.1455V132.409L37.397 118.607L37.3654 118.639L37.336 118.61L23.1551 132.72V88.982H17.894V141.329H23.1551V140.122L37.3679 125.981L51.2685 139.812V141.492H56.5296V89.1455H51.2685Z" fill="#6C63FF"/>
<path d="M257.434 89.1455V90.3515L243.222 104.493L229.321 90.6621V88.982H224.06V141.329H229.321V98.0649L243.192 111.867L243.224 111.835L243.253 111.864L257.434 97.7543V141.492H262.695V89.1455H257.434Z" fill="#6C63FF"/>
<path d="M120.225 56.899C122.008 56.899 123.454 55.4605 123.454 53.686C123.454 51.9115 122.008 50.473 120.225 50.473C118.442 50.473 116.996 51.9115 116.996 53.686C116.996 55.4605 118.442 56.899 120.225 56.899Z" fill="#6C63FF"/>
<path d="M40.5715 92.5993C42.3549 92.5993 43.8007 91.1608 43.8007 89.3863C43.8007 87.6118 42.3549 86.1733 40.5715 86.1733C38.788 86.1733 37.3423 87.6118 37.3423 89.3863C37.3423 91.1608 38.788 92.5993 40.5715 92.5993Z" fill="#6C63FF"/>
<path d="M104.438 164C106.221 164 107.667 162.561 107.667 160.787C107.667 159.012 106.221 157.574 104.438 157.574C102.654 157.574 101.209 159.012 101.209 160.787C101.209 162.561 102.654 164 104.438 164Z" fill="#6C63FF"/>
<path d="M185.526 66.5381C187.31 66.5381 188.756 65.0996 188.756 63.3251C188.756 61.5506 187.31 60.112 185.526 60.112C183.743 60.112 182.297 61.5506 182.297 63.3251C182.297 65.0996 183.743 66.5381 185.526 66.5381Z" fill="#6C63FF"/>
<path d="M280.608 161.144C282.392 161.144 283.838 159.705 283.838 157.931C283.838 156.156 282.392 154.718 280.608 154.718C278.825 154.718 277.379 156.156 277.379 157.931C277.379 159.705 278.825 161.144 280.608 161.144Z" fill="#6C63FF"/>
<path d="M283.838 76.8912C285.621 76.8912 287.067 75.4527 287.067 73.6782C287.067 71.9037 285.621 70.4651 283.838 70.4651C282.054 70.4651 280.608 71.9037 280.608 73.6782C280.608 75.4527 282.054 76.8912 283.838 76.8912Z" fill="#6C63FF"/>
<path d="M242.934 134.726C244.718 134.726 246.164 133.287 246.164 131.513C246.164 129.738 244.718 128.3 242.934 128.3C241.151 128.3 239.705 129.738 239.705 131.513C239.705 133.287 241.151 134.726 242.934 134.726Z" fill="#6C63FF"/>
</svg>
