<svg width="280" height="284" viewBox="0 0 280 284" fill="none" xmlns="http://www.w3.org/2000/svg">
<path d="M236.128 153.27C236.128 184.032 230.608 207.209 217.784 222.69C205.03 238.087 184.709 246.27 154.128 246.27C123.112 246.27 94.2618 245.584 73.159 237.353C62.6728 233.263 54.2149 227.348 48.3603 218.812C42.5049 210.276 39.1282 198.934 39.1282 183.77C39.1282 153.511 56.0927 118.971 80.9059 91.9263C105.73 64.8693 137.986 45.7701 168.128 45.7701C183.339 45.7701 195.08 48.6987 204.165 53.9154C213.234 59.1228 219.797 66.6905 224.533 76.2147C234.068 95.3882 236.128 122.319 236.128 153.27Z" stroke="#001BFC" stroke-opacity="0.62" stroke-width="4"/>
<path d="M159.015 252.108C146.24 260.665 136.494 265.246 128.558 266.676C120.76 268.082 114.642 266.458 108.937 262.331C103.111 258.115 97.6708 251.258 91.4565 242.048C88.5069 237.677 85.4152 232.827 82.0409 227.533L81.5432 226.753C77.9793 221.162 74.1067 215.102 69.7898 208.657C52.7608 183.234 42.9559 153.741 43.6964 126.461C44.4353 99.2441 55.6555 74.2348 80.7412 57.4318C105.679 40.7276 136.283 42.3792 165.166 54.7706C194.049 67.1616 220.886 90.1789 237.893 115.57C246.228 128.013 248.661 140.497 246.914 152.783C245.159 165.126 239.162 177.4 230.412 189.291C212.892 213.099 184.674 234.922 159.015 252.108Z" stroke="#70C7BE" stroke-width="4"/>
<path d="M227.192 214.914C224.911 230.084 221.177 239.225 216.22 244.489C211.377 249.632 205.092 251.352 196.863 250.961C188.538 250.564 178.56 248.024 166.616 244.928L165.827 244.723C154.144 241.693 140.753 238.22 125.683 235.955C95.3826 231.4 68.5805 219.907 50.5222 202.165C32.5285 184.486 23.1052 160.507 27.6059 130.567C32.0316 101.127 59.6606 80.081 94.5656 67.5154C129.351 54.9928 170.593 51.2023 200.831 55.7479C215.538 57.9587 224.974 65.0271 230.875 75.2711C236.842 85.6288 239.281 99.3888 239.536 115.033C239.923 138.846 235.269 166.351 230.98 191.699C229.624 199.714 228.304 207.514 227.192 214.914Z" stroke="#DB786E" stroke-width="4"/>
<path d="M170.117 104H169.851C159.258 104 149.89 109.619 144.502 117.91C139.113 109.619 129.745 104 119.152 104H118.886C110.937 104.076 103.338 107.294 97.742 112.954C92.1459 118.614 89.0043 126.26 89 134.229C89 144.125 93.3237 158.167 101.755 169.722C117.818 191.738 144.502 211 144.502 211C144.502 211 171.186 191.741 187.245 169.722C195.68 158.167 200 144.125 200 134.229C199.996 126.261 196.855 118.616 191.259 112.955C185.664 107.295 178.066 104.077 170.117 104ZM166.308 171.415C165.102 171.411 163.925 171.041 162.933 170.354C161.94 169.666 161.178 168.694 160.746 167.565H154.413C153.996 167.563 153.59 167.429 153.252 167.185C152.914 166.94 152.661 166.595 152.528 166.199L150.583 160.324L144.427 181.885C144.307 182.3 144.056 182.664 143.712 182.924C143.368 183.184 142.948 183.325 142.517 183.326H142.393C141.943 183.304 141.515 183.128 141.179 182.828C140.843 182.527 140.62 182.12 140.547 181.675L134.204 143.428L129.568 166.06C129.461 166.49 129.214 166.872 128.866 167.145C128.518 167.417 128.089 167.565 127.647 167.565H118.726C118.459 167.577 118.192 167.534 117.942 167.439C117.691 167.344 117.462 167.199 117.269 167.014C117.076 166.828 116.922 166.605 116.817 166.358C116.712 166.112 116.658 165.846 116.658 165.578C116.658 165.309 116.712 165.044 116.817 164.797C116.922 164.55 117.076 164.327 117.269 164.142C117.462 163.956 117.691 163.812 117.942 163.717C118.192 163.622 118.459 163.579 118.726 163.59H126.085L132.652 133.162C132.76 132.712 133.021 132.314 133.389 132.035C133.757 131.756 134.211 131.614 134.672 131.633C135.133 131.653 135.573 131.832 135.917 132.141C136.261 132.449 136.487 132.868 136.557 133.325L143.036 172.341L148.552 153.05C148.667 152.644 148.91 152.286 149.244 152.029C149.579 151.773 149.987 151.631 150.409 151.627H150.448C150.865 151.627 151.271 151.759 151.609 152.004C151.947 152.25 152.199 152.596 152.329 152.993L155.847 163.601H160.668C161.01 162.557 161.634 161.629 162.47 160.918C163.306 160.207 164.322 159.741 165.405 159.572C166.488 159.404 167.597 159.538 168.609 159.961C169.621 160.384 170.496 161.079 171.139 161.969C171.782 162.86 172.166 163.911 172.251 165.006C172.335 166.102 172.116 167.2 171.618 168.178C171.119 169.157 170.36 169.979 169.425 170.552C168.49 171.126 167.415 171.43 166.319 171.43L166.308 171.415Z" fill="#CF6F80"/>
</svg>
