<svg width="414" height="335" viewBox="0 0 414 335" fill="none" xmlns="http://www.w3.org/2000/svg">
<g style="mix-blend-mode:multiply" filter="url(#filter0_f)">
<g clip-path="url(#clip0)">
<path d="M340.14 327.302C333.265 321.385 329.089 312.038 330.184 302.939C331.279 293.839 338.062 285.474 346.861 283.542C355.659 281.609 365.689 286.958 368.362 295.712C369.832 278.835 371.527 261.25 380.337 246.877C388.315 233.862 402.131 224.55 417.106 222.884C432.08 221.218 447.846 227.51 457.185 239.548C466.524 251.586 468.81 269.087 462.27 282.908C457.451 293.089 448.574 300.666 439.273 306.83C409.219 326.581 373.172 334.613 337.766 329.448L340.14 327.302Z" fill="#F2F2F2"/>
<path d="M442.377 227.859C430.021 238.109 418.686 249.574 408.536 262.086C392.651 281.6 379.796 303.48 370.42 326.962C369.734 328.675 372.465 329.421 373.143 327.727C388.484 289.563 412.974 255.927 444.374 229.893C445.784 228.724 443.775 226.699 442.377 227.859Z" fill="white"/>
<path d="M101.869 325.694C111.312 317.567 117.048 304.729 115.543 292.231C114.039 279.733 104.723 268.243 92.6378 265.589C80.5529 262.935 66.7769 270.282 63.1064 282.306C61.0863 259.124 58.7585 234.971 46.6579 215.23C35.7011 197.355 16.7238 184.564 -3.84341 182.276C-24.4106 179.988 -46.0652 188.63 -58.8922 205.165C-71.7191 221.699 -74.8598 245.736 -65.8761 264.719C-59.2581 278.703 -47.0655 289.11 -34.2906 297.576C6.46552 324.587 57.0235 335.853 105.13 328.642" fill="#F2F2F2"/>
<path d="M-38.5536 189.109C-21.5832 203.188 -6.01458 218.934 7.92699 236.12C21.8708 253.288 34.1468 271.793 44.5825 291.375C50.4157 302.359 55.6557 313.66 60.2793 325.227C61.2219 327.58 57.4708 328.604 56.5386 326.277C48.3491 305.885 38.2172 286.36 26.2882 267.982C14.4171 249.67 0.829956 232.574 -14.2823 216.934C-22.8299 208.092 -31.8483 199.736 -41.2967 191.903C-43.2333 190.297 -40.4743 187.516 -38.5537 189.109L-38.5536 189.109Z" fill="white"/>
<path d="M314.467 330.284H89.1741V94.8441C89.1741 44.7524 129.185 4 178.365 4H225.276C274.456 4 314.467 44.7524 314.467 94.8441V330.284Z" fill="#F2F2F2"/>
<path d="M267.557 330.285H89.1741V94.8446C89.1249 75.6506 95.0922 56.9417 106.207 41.4419C106.617 40.8731 107.026 40.3116 107.447 39.7563C112.824 32.5743 119.222 26.2493 126.43 20.9899C126.837 20.6881 127.246 20.3916 127.661 20.0951C133.693 15.8436 140.217 12.3681 147.087 9.74766C147.495 9.59019 147.91 9.4324 148.325 9.28106C154.538 7.02289 160.978 5.47606 167.527 4.66912C167.933 4.61263 168.35 4.56843 168.766 4.52423C175.148 3.82924 181.584 3.82924 187.966 4.52423C188.382 4.56843 188.798 4.61263 189.209 4.66972C195.756 5.47672 202.195 7.02336 208.406 9.28109C208.821 9.43243 209.236 9.59021 209.645 9.74799C216.43 12.3354 222.878 15.759 228.846 19.9425C229.26 20.2326 229.675 20.5292 230.084 20.8257C234.125 23.7633 237.92 27.0361 241.431 30.6104C244.247 33.4775 246.871 36.5336 249.285 39.7582C249.705 40.3117 250.114 40.8731 250.523 41.441C261.638 56.941 267.606 75.6502 267.557 94.8446V330.285Z" fill="#CCCCCC"/>
<path d="M253.052 224.981C258.506 224.981 262.928 220.477 262.928 214.922C262.928 209.366 258.506 204.863 253.052 204.863C247.597 204.863 243.176 209.366 243.176 214.922C243.176 220.477 247.597 224.981 253.052 224.981Z" fill="#6370B0"/>
<path d="M296.011 323.232H288.444L284.843 293.503L296.012 293.504L296.011 323.232Z" fill="#FFB8B8"/>
<path d="M283.038 321.03H297.632V330.389H273.85C273.85 329.16 274.087 327.943 274.549 326.807C275.011 325.672 275.688 324.64 276.541 323.771C277.394 322.902 278.407 322.213 279.522 321.742C280.637 321.272 281.832 321.03 283.038 321.03Z" fill="#2F2E41"/>
<path d="M333.663 323.232H326.095L322.495 293.503L333.664 293.504L333.663 323.232Z" fill="#FFB8B8"/>
<path d="M320.69 321.03H335.284V330.389H311.501C311.501 329.16 311.739 327.943 312.201 326.807C312.663 325.672 313.339 324.64 314.193 323.771C315.046 322.902 316.059 322.213 317.174 321.742C318.289 321.272 319.483 321.03 320.69 321.03Z" fill="#2F2E41"/>
<path d="M258.05 216.914C257.506 216.097 257.144 215.169 256.99 214.194C256.836 213.219 256.894 212.222 257.159 211.272C257.424 210.323 257.891 209.444 258.526 208.698C259.161 207.952 259.949 207.357 260.834 206.954L286.558 134.74L299.216 141.776L269.845 210.786C270.41 212.346 270.394 214.062 269.799 215.61C269.205 217.159 268.074 218.431 266.62 219.186C265.166 219.942 263.49 220.128 261.911 219.709C260.332 219.29 258.958 218.296 258.05 216.914Z" fill="#FFB8B8"/>
<path d="M329.797 230.484C328.956 229.993 328.231 229.32 327.673 228.512C327.115 227.705 326.738 226.783 326.568 225.811C326.397 224.839 326.438 223.841 326.688 222.887C326.937 221.932 327.389 221.046 328.012 220.289L320.043 143.898L334.448 144.569L337.76 219.709C338.939 220.858 339.663 222.408 339.795 224.065C339.928 225.721 339.459 227.37 338.477 228.698C337.496 230.026 336.07 230.942 334.47 231.271C332.871 231.6 331.208 231.32 329.797 230.484Z" fill="#FFB8B8"/>
<path d="M306.817 121.364C315.19 121.364 321.977 114.451 321.977 105.923C321.977 97.3951 315.19 90.482 306.817 90.482C298.444 90.482 291.657 97.3951 291.657 105.923C291.657 114.451 298.444 121.364 306.817 121.364Z" fill="#FFB8B8"/>
<path d="M329.701 213.11H283.996L284.051 212.748C284.133 212.207 292.196 158.406 286.249 140.805C285.652 139.075 285.705 137.181 286.397 135.489C287.088 133.796 288.37 132.424 289.995 131.636H289.996C298.496 127.559 314.813 122.538 328.586 134.722C330.612 136.545 332.195 138.823 333.208 141.375C334.221 143.928 334.638 146.686 334.424 149.431L329.701 213.11Z" fill="#6370B0"/>
<path d="M292.774 166.357L272.197 162.105L281.842 138.825C282.42 136.57 283.851 134.641 285.823 133.459C287.795 132.278 290.147 131.942 292.362 132.525C294.577 133.107 296.475 134.561 297.64 136.566C298.804 138.572 299.14 140.967 298.573 143.224L292.774 166.357Z" fill="#6370B0"/>
<path d="M319.128 174.251L317.891 145.369C316.953 139.939 320.004 134.807 324.697 133.968C329.392 133.132 333.975 136.898 334.918 142.367L339.567 169.355L319.128 174.251Z" fill="#6370B0"/>
<path d="M328.18 209.652C335.534 238.18 336.336 274.45 334.352 314.013L324.476 312.756L306.576 237.314L296.701 314.013L285.59 313.384C282.271 271.873 279.039 236.236 284.356 212.796L328.18 209.652Z" fill="#2F2E41"/>
<path d="M316.806 117.856C313.978 120.925 308.726 119.277 308.357 115.086C308.328 114.76 308.33 114.433 308.363 114.107C308.554 112.251 309.607 110.565 309.354 108.604C309.297 108.116 309.119 107.651 308.836 107.253C306.582 104.18 301.292 108.628 299.165 105.846C297.861 104.139 299.394 101.453 298.393 99.5458C297.072 97.0289 293.159 98.2705 290.706 96.8921C287.976 95.3584 288.139 91.0924 289.936 88.4976C292.128 85.333 295.97 83.6445 299.765 83.4011C303.559 83.1577 307.328 84.2025 310.87 85.6087C314.896 87.2063 318.887 89.4144 321.364 93.0192C324.376 97.4031 324.666 103.297 323.16 108.423C322.243 111.541 319.116 115.351 316.806 117.856Z" fill="#2F2E41"/>
<path d="M218.486 262.073H138.245C137.188 262.078 136.172 261.657 135.42 260.901C134.668 260.145 134.241 259.116 134.233 258.039V75.6161C134.241 74.5398 134.668 73.5107 135.42 72.7546C136.172 71.9985 137.188 71.5771 138.245 71.5829H218.486C219.543 71.5771 220.559 71.9985 221.311 72.7546C222.063 73.5107 222.49 74.5398 222.498 75.6161V258.039C222.49 259.116 222.063 260.145 221.311 260.901C220.559 261.657 219.543 262.078 218.486 262.073Z" fill="white"/>
<path d="M222.498 130.609H134.233V131.867H222.498V130.609Z" fill="#CCCCCC"/>
<path d="M222.807 202.348H134.541V203.605H222.807V202.348Z" fill="#CCCCCC"/>
<path d="M163.243 71.5829H162.009V262.701H163.243V71.5829Z" fill="#CCCCCC"/>
<path d="M194.105 71.5829H192.871V262.701H194.105V71.5829Z" fill="#CCCCCC"/>
</g>
</g>
<defs>
<filter id="filter0_f" x="-75" y="0" width="545" height="335" filterUnits="userSpaceOnUse" color-interpolation-filters="sRGB">
<feFlood flood-opacity="0" result="BackgroundImageFix"/>
<feBlend mode="normal" in="SourceGraphic" in2="BackgroundImageFix" result="shape"/>
<feGaussianBlur stdDeviation="2" result="effect1_foregroundBlur"/>
</filter>
<clipPath id="clip0">
<path d="M-71 4H466V306C466 319.807 454.807 331 441 331H-71V4Z" fill="white"/>
</clipPath>
</defs>
</svg>
